<?xml version="1.0" standalone="no"?>
<!DOCTYPE svg PUBLIC "-//W3C//DTD SVG 20010904//EN"
 "http://www.w3.org/TR/2001/REC-SVG-20010904/DTD/svg10.dtd">
<svg version="1.0" xmlns="http://www.w3.org/2000/svg"
 width="5000.000000pt" height="5000.000000pt" viewBox="0 0 5000.000000 5000.000000"
 preserveAspectRatio="xMidYMid meet">
<metadata>
Created by potrace 1.14, written by Peter Selinger 2001-2017
</metadata>
<g transform="translate(0.000000,5000.000000) scale(0.100000,-0.100000)"
fill="#000000" stroke="none">
<path d="M29688 27131 l-3 -3348 -6480 3158 c-3564 1737 -6483 3159 -6487
3159 -5 0 -8 -591 -8 -1312 l0 -1313 7633 -3972 c4197 -2185 7640 -3975 7650
-3979 17 -6 18 3 13 182 -3 104 -8 2571 -12 5482 l-6 5292 -1149 0 -1149 0 -2
-3349z"/>
<path d="M8943 30429 c-1904 -99 -3286 -1165 -3500 -2699 -23 -168 -23 -560 0
-748 43 -346 127 -625 271 -910 123 -241 261 -429 470 -637 396 -395 895 -686
1671 -975 276 -103 482 -169 1120 -361 801 -242 1025 -320 1310 -459 257 -125
423 -245 536 -387 114 -144 162 -282 161 -468 -2 -620 -527 -1114 -1327 -1250
-429 -72 -847 -56 -1260 50 -387 100 -747 271 -1172 557 -279 189 -515 403
-727 661 l-89 109 -709 -709 c-389 -389 -708 -713 -708 -719 0 -22 217 -272
365 -420 222 -222 402 -371 717 -592 806 -565 1666 -868 2668 -942 174 -13
614 -13 800 0 978 69 1826 374 2470 889 126 101 331 301 444 432 611 712 850
1647 661 2585 -155 767 -628 1379 -1415 1831 -474 272 -989 472 -2020 783
-828 250 -1067 334 -1365 479 -339 166 -548 347 -641 558 -83 188 -75 441 20
647 170 368 571 614 1146 703 163 25 669 25 850 0 664 -93 1237 -343 1736
-755 l109 -91 712 712 713 712 -98 98 c-292 295 -627 521 -1157 778 -824 400
-1793 589 -2762 538z"/>
<path d="M40690 30434 c-196 -13 -353 -28 -470 -45 -1058 -152 -2045 -656
-2840 -1449 -427 -425 -768 -897 -1034 -1429 -314 -628 -492 -1247 -573 -1996
-24 -226 -24 -841 0 -1075 67 -644 214 -1204 463 -1768 358 -809 942 -1557
1635 -2094 750 -581 1577 -923 2499 -1033 184 -23 653 -31 861 -16 682 50
1298 223 1903 534 658 339 1290 854 1734 1415 77 97 162 215 162 226 0 5 -757
656 -764 656 -2 0 -46 -64 -99 -142 -268 -401 -581 -705 -1042 -1013 -730
-487 -1496 -714 -2335 -692 -726 19 -1395 234 -2030 652 -506 333 -926 754
-1263 1268 -823 1252 -984 2850 -430 4257 263 667 685 1271 1213 1735 1255
1103 2924 1328 4365 590 657 -337 1216 -819 1570 -1353 41 -62 50 -70 64 -60
26 21 715 609 735 629 19 18 19 19 -16 71 -165 248 -545 655 -853 912 -859
717 -1780 1108 -2837 1206 -117 10 -530 20 -618 14z"/>
</g>
</svg>
