<?xml version="1.0" encoding="UTF-8" standalone="no"?>
<svg
   xmlns:dc="http://purl.org/dc/elements/1.1/"
   xmlns:cc="http://creativecommons.org/ns#"
   xmlns:rdf="http://www.w3.org/1999/02/22-rdf-syntax-ns#"
   xmlns:svg="http://www.w3.org/2000/svg"
   xmlns="http://www.w3.org/2000/svg"
   version="1.1"
   id="Layer_1"
   x="0px"
   y="0px"
   width="100%"
   viewBox="0 0 5800 1500"
   enable-background="new 0 0 5800 1500"
   xml:space="preserve"><metadata
   id="metadata45"><rdf:RDF><cc:Work
       rdf:about=""><dc:format>image/svg+xml</dc:format><dc:type
         rdf:resource="http://purl.org/dc/dcmitype/StillImage" /><dc:title></dc:title></cc:Work></rdf:RDF></metadata><defs
   id="defs43" />

<path
   fill="#FDFDFD"
   opacity="1.000000"
   stroke="none"
   d=" M1167.990723,788.336121   C1067.071533,788.336121 967.151001,788.336121 866.683655,788.336121   C867.235107,799.213989 870.662048,808.579041 874.852051,817.483643   C895.439514,861.236023 930.183716,886.862000 977.670105,893.877380   C1033.557373,902.133850 1080.228394,882.152100 1120.085083,843.797913   C1121.763306,842.183105 1123.336670,840.459656 1124.988525,838.816650   C1125.190552,838.615662 1125.577637,838.600830 1126.845337,838.175476   C1144.311768,858.499634 1162.032227,879.119385 1180.314209,900.392334   C1174.910400,908.092651 1168.649658,914.814453 1161.739502,920.934265   C1128.812866,950.094849 1090.713379,968.946533 1047.509521,976.997314   C1000.357788,985.783752 953.702759,983.957764 909.229187,964.810181   C832.192261,931.642822 786.007507,873.197632 773.930359,790.095947   C762.938477,714.462402 784.664490,648.253418 839.178040,594.140686   C875.139709,558.443420 919.026367,538.160156 969.677917,533.515442   C1028.501831,528.121460 1082.269165,541.485413 1128.599365,579.158264   C1169.478271,612.398438 1192.112061,656.260559 1200.078125,707.949585   C1204.175171,734.534363 1203.079102,761.043945 1197.845825,788.336121   C1188.187012,788.336121 1178.588257,788.336121 1167.990723,788.336121  M1023.000000,711.847656   C1050.828369,711.847656 1078.656738,711.847656 1106.557373,711.847656   C1106.557373,709.813843 1106.753052,708.794373 1106.529297,707.877197   C1094.683960,659.326294 1060.310059,616.234863 997.444580,613.845459   C957.470459,612.326111 922.554443,623.826172 895.891785,655.156494   C881.905273,671.591492 872.553162,690.478149 866.278076,711.847656   C918.440063,711.847656 969.720032,711.847656 1023.000000,711.847656  z"
   id="path4" />
<path
   fill="#FDFDFD"
   opacity="1.000000"
   stroke="none"
   d=" M2304.000000,788.335938   C2230.041504,788.335938 2157.082764,788.335938 2083.077637,788.335938   C2083.832764,792.304077 2084.248779,795.534790 2085.071533,798.658386   C2098.343994,849.054138 2142.407471,887.356384 2194.414795,894.097534   C2250.847900,901.412292 2297.609619,881.853149 2337.584229,843.109802   C2339.239502,841.505676 2340.775391,839.778198 2342.994385,837.449524   C2361.014648,858.434387 2378.726318,879.060059 2396.982178,900.319519   C2392.390381,907.416565 2386.699219,913.358337 2380.651855,918.894714   C2346.873047,949.818604 2307.270264,969.315613 2262.312012,977.395203   C2216.188721,985.684265 2170.509033,983.691406 2126.937744,965.241394   C2052.400146,933.679077 2005.940552,877.913940 1992.010254,798.054016   C1977.196655,713.130005 2002.538452,640.625183 2067.744873,583.525940   C2101.474854,553.989746 2141.527588,537.618408 2186.307129,533.502686   C2243.261230,528.268005 2295.604980,540.705750 2341.323486,575.994385   C2383.062744,608.211731 2406.718994,651.470703 2415.991455,702.958984   C2421.059814,731.101868 2420.334229,759.182739 2414.559082,788.335938   C2378.097412,788.335938 2341.548828,788.335938 2304.000000,788.335938  M2277.791992,635.105347   C2237.426514,607.895569 2194.573242,606.945190 2151.326660,625.729004   C2114.207031,641.851624 2095.206543,673.738708 2083.088623,711.190430   C2164.083740,711.190430 2243.809326,711.190430 2324.226562,711.190430   C2316.798340,680.812988 2303.358887,655.111877 2277.791992,635.105347  z"
   id="path6" />
<path
   fill="#FC5331"
   opacity="1.000000"
   stroke="none"
   d=" M1570.054199,809.896606   C1473.077271,759.451294 1376.823853,709.225525 1280.395386,659.337952   C1273.220703,655.626038 1270.424438,651.606934 1270.579590,643.404419   C1271.121094,614.754517 1270.791138,586.088074 1270.792358,557.427917   C1270.792480,554.153442 1270.792358,550.878967 1270.792358,545.637207   C1449.148682,632.298096 1625.927124,718.768860 1804.736694,805.724121   C1804.736694,712.982300 1804.736694,622.253418 1804.736694,530.973938   C1836.850586,530.973938 1867.679565,530.973938 1899.949585,530.973938   C1900.259766,680.585205 1899.750122,830.021606 1900.315186,979.737976   C1894.677979,980.255859 1891.046387,976.952820 1887.102295,974.903748   C1814.993164,937.439941 1742.936157,899.876160 1670.865845,862.337585   C1637.490845,844.954041 1604.111572,827.578979 1570.054199,809.896606  z"
   id="path8" />
<path
   fill="#FCFCFC"
   opacity="1.000000"
   stroke="none"
   d=" M2595.005615,981.654419   C2565.866211,981.671997 2537.639893,981.671997 2508.434814,981.671997   C2508.434814,977.761292 2508.434814,974.850098 2508.434814,971.938843   C2508.435303,886.629211 2508.206787,801.318726 2508.551514,716.010498   C2508.684570,683.035461 2514.828369,651.040710 2529.959717,621.422180   C2551.895508,578.485535 2585.193359,550.008423 2633.343750,539.400574   C2683.688965,528.309204 2733.628418,528.530701 2783.674805,540.414368   C2828.051758,550.951965 2859.291992,578.075317 2880.583496,617.456909   C2896.922607,647.678650 2903.769775,680.492737 2903.936035,714.537537   C2904.337891,796.845398 2904.135010,879.156189 2904.174805,961.465820   C2904.177979,967.769348 2904.175293,974.072815 2904.175293,981.025269   C2874.180420,981.025269 2844.705322,981.025269 2813.831055,981.025269   C2813.831055,977.641174 2813.831055,974.118958 2813.831055,970.596741   C2813.831055,888.619507 2813.798828,806.642334 2813.862793,724.665100   C2813.873535,710.935547 2812.495605,697.454651 2808.441650,684.290100   C2798.026367,650.466675 2775.638916,629.555725 2741.094238,621.718811   C2717.320801,616.325378 2693.515869,616.384583 2669.861328,622.103577   C2632.762207,631.072998 2610.806396,655.261780 2602.281982,691.794861   C2599.962891,701.733337 2599.264648,712.241821 2599.235840,722.492615   C2599.001465,805.468872 2599.141113,888.446106 2598.972412,971.422729   C2598.965332,974.836609 2601.556152,979.659302 2595.005615,981.654419  z"
   id="path10" />
<path
   fill="#FDFDFD"
   opacity="1.000000"
   stroke="none"
   d=" M409.389771,601.426636   C430.580109,566.540039 462.057922,546.999756 500.089630,538.329834   C563.804871,523.804871 623.711487,534.431274 679.112183,569.306702   C688.414246,575.162415 696.915894,582.087402 703.449585,589.963806   C683.900024,609.557373 664.650940,628.849854 645.423889,648.120178   C636.180786,642.164001 626.838989,635.245850 616.709900,629.789307   C588.786926,614.747192 558.978943,610.195251 527.773743,616.106689   C515.822205,618.370728 504.867126,623.098145 496.084229,631.916382   C479.041962,649.027283 480.265381,671.390930 500.062134,684.982544   C509.264099,691.300171 519.762512,696.260193 530.331604,699.949402   C555.130432,708.605530 580.397034,715.910461 605.337402,724.175476   C623.690552,730.257446 641.260559,738.137268 657.947144,748.075806   C722.059021,786.261108 724.494263,860.517700 697.119812,907.782410   C679.826355,937.641357 653.941956,957.358215 621.943115,968.899597   C541.822693,997.797485 445.592896,979.259033 382.773193,908.987427   C380.559937,906.511719 378.575470,903.831421 376.555908,901.334839   C396.151855,882.036377 415.578613,862.904541 435.586151,843.200684   C436.549774,844.267456 438.236725,846.073792 439.857025,847.937988   C461.003296,872.268982 487.158173,888.729431 518.328491,896.758301   C540.757996,902.535767 563.186890,901.756958 585.170105,893.988953   C595.066650,890.491882 603.721619,885.005493 610.807861,877.189636   C616.753601,870.631653 620.743896,863.105957 622.222778,854.287781   C624.535767,840.495605 620.674866,828.759705 608.888550,821.182800   C599.456604,815.119324 589.338379,809.604980 578.805847,805.878479   C556.241638,797.894897 533.178101,791.331848 510.383728,783.986389   C489.115509,777.132690 468.354675,769.047363 449.289734,757.153931   C422.095001,740.188782 403.081604,717.103943 396.616516,685.102356   C390.740570,656.017090 394.149078,628.136108 409.389771,601.426636  z"
   id="path12" />
<path
   fill="#FCFCFC"
   opacity="1.000000"
   stroke="none"
   d=" M3957.829102,1161.568237   C3948.907959,1161.568237 3940.960693,1161.568237 3932.338623,1161.568237   C3932.338623,954.587708 3932.338623,748.221924 3932.338623,541.387573   C3945.353271,541.387573 3958.224609,541.387573 3972.204102,541.387573   C3972.204102,568.340027 3972.204102,595.043091 3972.204102,621.746216   C3972.820557,621.949524 3973.436768,622.152771 3974.053223,622.356079   C3976.117188,619.607788 3978.190430,616.866211 3980.243896,614.109985   C4008.418457,576.294006 4044.074951,548.628540 4090.548584,538.100708   C4171.140137,519.844116 4237.705566,544.810486 4290.041504,607.719116   C4318.202637,641.569397 4333.383301,681.398438 4338.461914,725.110291   C4344.709961,778.880676 4336.816895,830.127197 4309.667480,877.384460   C4280.662109,927.872742 4238.976562,963.527954 4181.354004,976.110474   C4102.242188,993.385498 4036.229248,970.097351 3985.009033,906.739746   C3981.260498,902.102905 3977.853760,897.189880 3974.259033,892.427185   C3974.147461,892.279114 3973.711914,892.375610 3972.454102,892.298157   C3972.454102,981.731445 3972.454102,1071.113159 3972.454102,1161.568237   C3967.276855,1161.568237 3963.040039,1161.568237 3957.829102,1161.568237  M4138.973633,573.399414   C4131.010254,573.915405 4122.935059,573.755371 4115.102051,575.056091   C4060.287598,584.158386 4020.548584,614.568359 3994.922607,663.097229   C3971.643066,707.182251 3966.839844,754.188110 3977.445312,802.731323   C3987.200684,847.384094 4009.496338,884.334839 4046.938721,911.136230   C4081.828857,936.110413 4120.825684,945.751038 4163.266602,938.263367   C4206.921387,930.561462 4240.399414,906.538452 4265.338867,870.585388   C4309.807129,806.478699 4311.483398,714.147400 4268.865723,648.751709   C4238.888672,602.753174 4197.094238,575.555725 4138.973633,573.399414  z"
   id="path14" />
<path
   fill="#FAFAFA"
   opacity="1.000000"
   stroke="none"
   d=" M3769.436523,608.491943   C3783.908691,634.623962 3791.496826,661.939331 3792.308838,691.077515   C3792.716797,705.717102 3793.059814,720.364075 3793.073730,735.008057   C3793.147705,813.309937 3793.108643,891.612061 3793.108643,969.914062   C3793.108643,973.507568 3793.108643,977.101013 3793.108643,981.187988   C3779.006592,981.187988 3765.884277,981.187988 3751.988281,981.187988   C3751.988281,954.278809 3751.988281,927.806946 3751.988281,898.772034   C3749.002197,902.553650 3747.428955,904.407349 3746.005371,906.369385   C3714.530029,949.753296 3672.226318,974.396851 3618.897217,980.350647   C3588.926514,983.696594 3559.663574,981.364197 3531.652832,969.812805   C3495.432861,954.875916 3468.312500,930.300598 3456.291748,892.198853   C3441.875732,846.505737 3456.622314,789.547485 3506.595215,757.259644   C3529.067627,742.740234 3553.754883,734.197205 3579.957031,729.990173   C3635.772461,721.028564 3691.642334,712.406555 3747.484131,703.608887   C3748.740234,703.410950 3749.927734,702.776733 3751.031982,702.386780   C3753.709961,648.751709 3725.845215,588.501038 3659.415039,576.194885   C3600.243408,565.233459 3551.614990,586.202393 3511.279053,629.150940   C3509.248779,631.312805 3507.343262,633.591736 3505.427979,635.761353   C3496.370117,626.743774 3487.647705,618.060303 3478.207764,608.662354   C3480.925293,605.281982 3483.517822,601.540466 3486.617920,598.281738   C3517.499023,565.817932 3554.007324,542.664734 3598.630859,535.241699   C3655.815918,525.729187 3707.286377,537.774475 3748.698242,580.803528   C3756.467773,588.876282 3762.307129,598.806824 3769.436523,608.491943  M3627.906006,764.489380   C3610.240234,767.632446 3592.488770,770.365967 3574.930908,774.026489   C3554.880371,778.206604 3536.210449,785.746460 3520.008301,798.805847   C3489.122314,823.700745 3477.963135,877.317078 3517.089111,912.788940   C3526.308350,921.147156 3536.713867,927.559509 3548.289307,932.114685   C3572.875977,941.790283 3598.183350,942.325867 3623.890137,938.239685   C3690.383789,927.670471 3742.843750,873.623352 3750.111816,806.948486   C3752.086182,788.836060 3751.359619,770.426575 3751.789307,752.151428   C3751.848389,749.639709 3751.421875,747.116516 3751.186523,744.177429   C3710.234131,750.935852 3669.932861,757.586792 3627.906006,764.489380  z"
   id="path16" />
<path
   fill="#FAFAFA"
   opacity="1.000000"
   stroke="none"
   d=" M4905.775391,850.270020   C4909.674316,803.941345 4933.356445,771.852295 4972.534668,750.358643   C4995.313965,737.861572 5020.157227,731.972351 5045.641113,728.061646   C5097.917480,720.039246 5150.148926,711.729065 5202.393555,703.499023   C5203.325684,703.352112 5204.182129,702.723389 5205.703125,702.034546   C5206.747070,685.756897 5203.977051,669.767639 5199.179199,654.203613   C5184.331543,606.037781 5145.497559,576.134277 5095.078613,573.610352   C5043.706055,571.038635 5001.770508,590.906921 4966.970703,627.645630   C4964.476562,630.278809 4962.099121,633.022583 4959.652344,635.731201   C4950.665527,626.392883 4941.974609,617.361877 4932.561035,607.580017   C4938.659180,601.076233 4944.782227,593.553772 4951.897949,587.130615   C4981.116699,560.755005 5014.257812,541.297913 5053.565430,535.008423   C5107.284180,526.413147 5156.432617,536.681702 5197.254395,574.842529   C5223.499512,599.376831 5238.059570,630.483521 5243.883789,665.566772   C5246.161621,679.291565 5247.220703,693.367737 5247.268066,707.289185   C5247.563965,794.601257 5247.417480,881.914795 5247.417480,969.227844   C5247.417480,972.861389 5247.417969,976.494934 5247.417969,981.553040   C5233.795898,981.828125 5220.666992,981.653564 5206.989746,981.642273   C5204.818359,972.575745 5206.282715,963.643250 5206.016602,954.828308   C5205.745605,945.838562 5205.956543,936.834290 5205.956543,927.836365   C5205.956543,919.000427 5205.956543,910.164429 5205.956543,901.328491   C5205.430176,901.178040 5204.903809,901.027527 5204.377930,900.877075   C5203.078125,902.591492 5201.741699,904.279175 5200.484375,906.024170   C5168.908691,949.841736 5126.347656,974.569214 5072.574707,980.401550   C5040.807617,983.846985 5009.966797,980.934814 4980.775391,967.629944   C4945.463379,951.535645 4920.227051,925.969849 4909.048340,887.873657   C4905.510742,875.816650 4905.490234,863.563110 4905.775391,850.270020  M5172.779785,749.622742   C5151.442383,753.132507 5130.090332,756.559509 5108.770508,760.173035   C5082.206543,764.675598 5055.589844,768.925537 5029.145996,774.057068   C5009.693359,777.831848 4991.596680,785.285645 4975.752441,797.638794   C4943.776367,822.569336 4933.175781,874.362488 4968.030762,909.545288   C4979.495605,921.118103 4993.143066,929.155457 5008.567871,934.281372   C5055.238770,949.790710 5126.561035,938.687744 5170.420898,885.956604   C5205.019531,844.360107 5209.137695,795.598877 5205.095703,744.143677   C5194.769531,745.917725 5184.638672,747.658203 5172.779785,749.622742  z"
   id="path18" />
<path
   fill="#FAFAFA"
   opacity="1.000000"
   stroke="none"
   d=" M3371.075684,909.076538   C3338.848633,944.119385 3300.892822,968.554443 3254.517578,977.574463   C3184.275879,991.236633 3123.197510,971.535400 3071.905029,922.574829   C3031.352539,883.865967 3008.219482,835.831787 3003.730957,779.808594   C2996.509521,689.679565 3029.086914,616.987793 3104.039551,565.887207   C3176.803223,516.278870 3270.741943,521.622131 3340.729980,576.657227   C3357.267090,589.661560 3372.353516,604.086243 3384.520508,622.477905   C3373.999512,631.493225 3363.709229,640.310547 3353.122314,649.382263   C3351.433594,647.286194 3349.953125,645.555176 3348.587891,643.737854   C3320.761475,606.701721 3284.308838,583.314941 3238.538574,575.490906   C3198.684082,568.678040 3161.554932,577.159119 3127.980957,599.252136   C3080.815186,630.289062 3053.006104,674.335754 3045.506348,730.209412   C3036.814941,794.964172 3055.780029,851.204956 3103.694824,895.807678   C3165.903564,953.715820 3252.298828,955.749573 3318.802979,902.644226   C3330.343506,893.428589 3340.399170,882.855408 3348.587646,870.532837   C3349.860840,868.616516 3351.336914,866.834778 3353.039551,864.563721   C3362.117188,872.331909 3370.952393,879.878418 3379.766846,887.448669   C3381.239746,888.713806 3382.625977,890.079773 3384.629639,891.932861   C3380.118408,897.670837 3375.837646,903.115662 3371.075684,909.076538  z"
   id="path20" />
<path
   fill="#FAFAFA"
   opacity="1.000000"
   stroke="none"
   d=" M4722.042480,818.000000   C4722.087402,836.324829 4721.499512,853.683594 4722.423340,870.961365   C4722.948730,880.784607 4724.806641,890.874817 4728.052734,900.149048   C4736.759277,925.025391 4755.362793,938.075439 4781.294922,940.187500   C4799.716797,941.687805 4817.842285,939.480469 4835.142090,932.353516   C4838.790527,930.850403 4842.550293,929.616821 4847.021484,927.979980   C4847.021484,941.554016 4847.021484,954.582458 4847.021484,968.866455   C4841.440430,971.068176 4835.461426,973.955444 4829.178711,975.814453   C4801.304688,984.062439 4773.270996,984.374878 4745.666504,975.062317   C4713.646973,964.260254 4695.072754,940.813354 4686.261719,908.905701   C4682.155273,894.032104 4680.943848,878.772766 4680.930664,863.438477   C4680.854004,773.811707 4680.894531,684.184814 4680.895020,594.557922   C4680.895020,590.913757 4680.895020,587.269531 4680.895020,582.627197   C4652.621094,582.627197 4624.841309,582.627197 4596.448242,582.627197   C4596.448242,568.819641 4596.448242,555.982971 4596.448242,542.308777   C4598.546875,542.114075 4601.051270,541.691650 4603.557617,541.680481   C4617.884766,541.616516 4632.211914,541.716736 4646.538086,541.607788   C4650.513672,541.577515 4654.501953,541.169006 4658.454102,540.686340   C4672.443359,538.978027 4680.449707,530.424011 4683.853027,517.373291   C4685.178223,512.290344 4685.608398,506.852631 4685.635742,501.572388   C4685.794922,470.586975 4685.714844,439.600281 4685.715332,408.614044   C4685.715332,405.345184 4685.715332,402.076324 4685.715332,398.268005   C4697.841309,398.268005 4709.329102,398.268005 4721.870117,398.268005   C4721.870117,445.718964 4721.870117,493.152252 4721.870117,541.446411   C4755.044434,541.446411 4787.192383,541.446411 4819.842773,541.446411   C4819.842773,555.152893 4819.842773,568.001038 4819.842773,581.746521   C4787.822266,581.746521 4755.679199,581.746521 4722.046875,581.746521   C4722.038086,621.762939 4722.043457,660.907349 4722.042480,700.051697   C4722.041504,739.034485 4722.042480,778.017212 4722.042480,818.000000  z"
   id="path22" />
<path
   fill="#FAFAFA"
   opacity="1.000000"
   stroke="none"
   d=" M5431.579590,488.000244   C5431.579590,652.826599 5431.579590,816.652954 5431.579590,981.083862   C5417.624023,981.083862 5404.465820,981.083862 5390.559570,981.083862   C5390.559570,769.180115 5390.559570,557.180542 5390.559570,343.724274   C5396.947754,343.724274 5403.778320,343.724274 5410.609375,343.724274   C5417.224121,343.724274 5423.838867,343.724274 5431.579590,343.724274   C5431.579590,391.947357 5431.579590,439.473785 5431.579590,488.000244  z"
   id="path24" />
<path
   fill="#F7F7F7"
   opacity="1.000000"
   stroke="none"
   d=" M4456.397949,597.999756   C4456.397949,575.360352 4456.397949,553.720947 4456.397949,530.760315   C4463.232422,530.641174 4469.721680,530.482910 4476.212402,530.427490   C4482.849609,530.370789 4489.487793,530.414856 4495.990234,530.414856   C4498.143066,537.947205 4499.060059,961.327026 4497.038574,982.492554   C4483.955566,982.492554 4470.799316,982.492554 4456.397949,982.492554   C4456.397949,854.508972 4456.397949,726.754395 4456.397949,597.999756  z"
   id="path26" />
<path
   fill="#F9F9F9"
   opacity="1.000000"
   stroke="none"
   d=" M4510.055664,438.193359   C4515.934082,466.060394 4491.754883,484.332245 4468.618652,476.424713   C4454.809570,471.704987 4447.237305,460.274261 4447.737793,444.914612   C4448.200684,430.688995 4457.155762,419.363586 4470.686035,415.888489   C4484.976074,412.218323 4499.021973,417.427032 4506.266602,429.283630   C4507.804199,431.800385 4508.719238,434.697388 4510.055664,438.193359  z"
   id="path28" />





</svg>
