<?xml version="1.0" encoding="UTF-8" standalone="no"?>
<svg
   xmlns:dc="http://purl.org/dc/elements/1.1/"
   xmlns:cc="http://creativecommons.org/ns#"
   xmlns:rdf="http://www.w3.org/1999/02/22-rdf-syntax-ns#"
   xmlns:svg="http://www.w3.org/2000/svg"
   xmlns="http://www.w3.org/2000/svg"
   version="1.1"
   id="Layer_1"
   x="0px"
   y="0px"
   width="100%"
   viewBox="0 0 5000 2000"
   enable-background="new 0 0 5000 2000"
   xml:space="preserve"><metadata
   id="metadata15"><rdf:RDF><cc:Work
       rdf:about=""><dc:format>image/svg+xml</dc:format><dc:type
         rdf:resource="http://purl.org/dc/dcmitype/StillImage" /><dc:title></dc:title></cc:Work></rdf:RDF></metadata><defs
   id="defs13" />

<path
   fill="#FD5431"
   opacity="1.000000"
   stroke="none"
   d=" M3162.780762,1529.151611   C2953.546387,1420.210083 2744.960938,1311.630981 2536.366211,1203.069702   C2253.315430,1055.758667 1970.244507,908.487427 1687.239380,761.089417   C1671.480225,752.881592 1674.380249,757.550476 1674.354736,740.307556   C1674.238647,661.980408 1674.304077,583.652954 1674.304077,505.325653   C1674.304077,501.721008 1674.304077,498.116364 1674.304077,492.535950   C1715.003662,511.495911 1753.788086,531.039124 1792.866211,549.950989   C1832.138428,568.956726 1871.303101,588.184631 1910.522705,607.299194   C1950.041870,626.559570 1989.572021,645.796997 2029.094482,665.050476   C2068.315918,684.157410 2107.538330,703.262329 2146.751953,722.385315   C2185.967773,741.509338 2225.169922,760.661743 2264.384277,779.788635   C2303.596924,798.914612 2342.814941,818.029724 2382.035400,837.139832   C2421.256348,856.250183 2460.486572,875.341309 2499.706543,894.453552   C2538.926270,913.565735 2578.138184,932.692993 2617.353027,951.815186   C2656.867188,971.083191 2696.375732,990.363342 2735.895752,1009.619568   C2775.116943,1028.730103 2814.352539,1047.810791 2853.575928,1066.916504   C2892.709717,1085.978271 2931.835938,1105.054932 2972.256836,1124.754517   C2972.256836,901.041870 2972.256836,678.878296 2972.256836,455.344543   C2998.196533,454.326355 3023.363281,455.004974 3048.505859,454.883453   C3074.169922,454.759399 3099.834961,454.856049 3125.499756,454.856049   C3150.752930,454.856049 3176.006104,454.856049 3201.953125,454.856049   C3203.022949,820.174072 3200.706543,1184.377441 3203.451904,1550.049683   C3189.767334,1543.031494 3176.596436,1536.276733 3162.780762,1529.151611  z"
   id="path4" />
<path
   fill="#FEFEFE"
   opacity="1.000000"
   stroke="none"
   d=" M623.543945,960.456299   C577.954834,915.573181 553.399231,861.499939 547.827087,798.777466   C536.917969,675.979797 588.464722,584.778503 690.544556,519.894836   C732.347412,493.324280 778.517944,477.002594 827.088257,468.493439   C945.847229,447.687805 1060.609985,461.072296 1170.309692,512.027466   C1209.984619,530.456360 1247.864746,552.052856 1280.187500,582.156311   C1285.306274,586.923706 1290.210938,591.922424 1295.169189,596.859680   C1296.336426,598.021851 1297.319702,599.368591 1297.767212,599.897278   C1250.489746,647.171448 1203.444336,694.213806 1155.933105,741.721802   C1154.697510,740.755127 1152.331665,739.028259 1150.101440,737.140869   C1098.683838,693.622864 1039.674316,666.970581 972.820984,658.558960   C932.530457,653.489563 892.355042,654.152283 853.006226,665.980225   C834.344116,671.589844 816.942078,679.798645 801.738281,692.137817   C782.743713,707.553589 769.803894,726.716187 765.667786,751.295471   C761.296448,777.272156 769.021362,799.277527 787.107727,817.947937   C797.642944,828.823425 810.142944,837.049622 823.361145,844.256531   C848.013794,857.697632 874.196777,867.478638 900.857483,875.929871   C947.782104,890.804382 994.935791,904.958313 1041.824219,919.943909   C1079.572876,932.008484 1116.477417,946.339111 1151.819580,964.415100   C1184.594482,981.178101 1215.254639,1001.030090 1241.871948,1026.721191   C1282.525757,1065.960449 1307.598022,1113.362061 1316.478516,1169.211792   C1328.853882,1247.041016 1315.440674,1319.716187 1272.079834,1386.046143   C1237.836670,1438.428467 1191.039429,1476.577148 1135.180054,1503.935791   C1088.076660,1527.006104 1038.136353,1540.213989 986.141235,1546.377563   C943.592834,1551.421143 901.010681,1551.871826 858.465210,1547.557861   C771.345398,1538.724121 691.449463,1509.775269 618.877869,1460.538696   C576.987610,1432.117920 538.516113,1400.041626 507.116791,1360.028564   C505.703766,1358.227905 504.390381,1356.349121 503.678497,1355.384521   C551.075073,1307.998169 598.093323,1260.989990 645.453064,1213.640381   C647.807861,1216.468872 650.896973,1220.285522 654.096985,1224.006836   C707.402466,1285.995361 773.510559,1327.742065 853.072266,1346.566528   C906.330994,1359.167603 959.560913,1356.838135 1011.444702,1338.007812   C1033.965210,1329.834351 1054.072510,1317.566772 1070.607422,1300.019775   C1090.817505,1278.572510 1102.079590,1253.332520 1102.361816,1223.525635   C1102.533325,1205.409424 1096.594116,1189.589844 1085.072876,1175.761230   C1074.902344,1163.553711 1062.285645,1154.339111 1048.609253,1146.538086   C1020.400391,1130.447754 989.952576,1119.728760 959.141846,1110.037964   C909.960388,1094.569214 860.535889,1079.861694 811.478882,1064.013184   C772.800903,1051.517822 735.326050,1035.906006 699.714539,1016.119629   C672.228821,1000.848083 646.557739,983.064148 623.543945,960.456299  z"
   id="path6" />
<path
   fill="#FDFDFD"
   opacity="1.000000"
   stroke="none"
   d=" M4373.328125,1337.344482   C4383.936523,1325.784058 4394.552246,1315.131592 4404.002930,1303.530273   C4413.217773,1292.218506 4421.241699,1279.936401 4430.553711,1267.017944   C4455.596191,1288.471802 4480.738281,1310.011108 4506.422852,1332.015015   C4503.368652,1336.419189 4500.782227,1340.596558 4497.764648,1344.435669   C4417.222656,1446.905884 4314.954102,1516.038208 4186.245117,1541.215576   C4052.490479,1567.379761 3928.392334,1540.131104 3816.421631,1462.869263   C3700.448242,1382.845459 3627.495117,1272.473022 3594.037354,1135.898071   C3579.976807,1078.503540 3575.873535,1020.146790 3580.353760,961.283020   C3594.660156,773.308411 3700.198486,610.030457 3854.523682,522.644592   C3913.792725,489.083771 3977.230957,468.031372 4045.213867,461.664825   C4159.813477,450.932678 4265.425293,477.244537 4361.833008,539.931091   C4415.354980,574.732178 4462.361816,616.759888 4500.176758,668.560120   C4502.137695,671.246094 4504.023438,673.986938 4506.516113,677.511475   C4481.243652,699.175720 4456.052734,720.770386 4430.770508,742.443115   C4429.580078,741.527161 4428.593750,741.100769 4428.112305,740.350586   C4393.122559,685.810059 4345.239258,645.195251 4289.997070,612.576416   C4243.257324,584.978577 4193.089355,566.960022 4139.131348,560.436035   C4065.855225,551.576233 3995.540527,562.810425 3929.164307,595.073425   C3823.590088,646.389038 3751.206055,728.596130 3708.276611,837.137817   C3682.752930,901.671448 3672.719482,969.090210 3678.560303,1038.039429   C3691.091797,1185.968384 3757.325684,1303.774414 3880.952148,1387.477783   C3931.927246,1421.991455 3988.653320,1442.802979 4049.946777,1449.563477   C4135.072754,1458.952637 4214.889160,1441.605957 4289.229492,1399.192871   C4319.431152,1381.962280 4347.515625,1361.770508 4373.328125,1337.344482  z"
   id="path8" />
</svg>
