<?xml version="1.0" encoding="UTF-8" standalone="no"?>
<svg
   xmlns:dc="http://purl.org/dc/elements/1.1/"
   xmlns:cc="http://creativecommons.org/ns#"
   xmlns:rdf="http://www.w3.org/1999/02/22-rdf-syntax-ns#"
   xmlns:svg="http://www.w3.org/2000/svg"
   xmlns="http://www.w3.org/2000/svg"
   version="1.1"
   id="Layer_1"
   x="0px"
   y="0px"
   width="100%"
   viewBox="0 0 5800 1500"
   enable-background="new 0 0 5800 1500"
   xml:space="preserve"><metadata
   id="metadata45"><rdf:RDF><cc:Work
       rdf:about=""><dc:format>image/svg+xml</dc:format><dc:type
         rdf:resource="http://purl.org/dc/dcmitype/StillImage" /><dc:title></dc:title></cc:Work></rdf:RDF></metadata><defs
   id="defs43" />

<path
   fill="#020202"
   opacity="1.000000"
   stroke="none"
   d=" M796.986328,863.031250   C775.796631,822.247314 768.092041,779.474365 772.258240,734.689026   C781.876709,631.292969 858.711487,551.214172 954.826233,535.718994   C1010.899109,526.679199 1063.724609,536.023193 1111.550903,567.362732   C1159.183228,598.575073 1186.830444,643.466064 1197.926880,698.928406   C1203.816040,728.363770 1203.161499,757.780945 1197.238037,788.010864   C1087.227661,788.010864 977.034851,788.010864 865.935425,788.010864   C866.354126,791.434448 866.402100,793.980042 866.998840,796.389771   C879.674622,847.573792 923.180481,886.696472 975.403015,894.149048   C1030.889282,902.067505 1077.541870,883.839050 1117.753540,846.364563   C1120.187134,844.096619 1122.446777,841.642395 1124.813721,839.301453   C1124.999512,839.117676 1125.392822,839.143677 1126.651489,838.840454   C1144.061646,859.144531 1161.765259,879.791016 1179.502075,900.476074   C1170.660278,912.452820 1160.502686,922.013489 1149.369995,930.558716   C1109.963013,960.806885 1065.443970,977.120850 1015.861938,980.645813   C976.203674,983.465210 938.122986,977.868896 901.913879,961.526611   C856.047791,940.825745 821.159729,908.099854 796.986328,863.031250  M868.645813,701.983337   C867.674072,705.082031 866.702332,708.180725 865.611023,711.660645   C946.682922,711.660645 1026.852051,711.660645 1107.103394,711.660645   C1104.592407,696.793640 1098.585327,681.092468 1089.860352,666.855042   C1074.172607,641.255676 1051.963623,624.435486 1022.737366,616.974060   C1006.672913,612.872742 990.336121,612.735779 974.091675,614.287537   C945.266235,617.041077 920.242126,628.377441 900.056641,649.606567   C886.054993,664.332214 876.371216,681.630127 868.645813,701.983337  z"
   id="path4" />
<path
   fill="#020202"
   opacity="1.000000"
   stroke="none"
   d=" M2136.217041,871.930542   C2182.645996,901.718872 2230.658447,903.034668 2279.952637,882.765137   C2302.348633,873.555969 2322.060059,859.942810 2338.672363,842.135132   C2339.800049,840.926270 2340.393311,839.218750 2341.733643,836.868286   C2360.760986,859.047180 2378.440918,879.655762 2396.242188,900.405334   C2386.659912,913.687988 2375.082275,924.114380 2362.447266,933.396179   C2322.421387,962.799805 2277.584229,978.245789 2227.937988,980.902954   C2177.449707,983.605103 2130.482178,972.879028 2088.366699,944.841675   C2030.344482,906.214966 1996.562988,851.722473 1989.718628,782.308960   C1981.161987,695.530457 2011.825562,624.775635 2082.194824,572.602844   C2115.033203,548.255798 2152.675781,535.548950 2193.615234,533.188110   C2251.897705,529.827148 2304.470215,544.719177 2349.198730,583.178101   C2383.773926,612.906738 2404.445801,650.995361 2413.856689,695.345093   C2420.877930,728.433838 2419.580322,761.417603 2413.659180,788.333252   C2303.646484,788.333252 2193.455078,788.333252 2082.124756,788.333252   C2089.030273,824.021912 2107.035889,851.144226 2136.217041,871.930542  M2158.874268,621.718872   C2117.268799,637.881042 2095.513672,670.666199 2082.322754,711.457031   C2163.615479,711.457031 2243.671143,711.457031 2324.268555,711.457031   C2320.603760,694.603149 2314.652100,679.526672 2305.846436,665.670715   C2288.530029,638.422974 2264.296631,621.057556 2232.190430,615.627136   C2207.835693,611.507812 2183.784180,612.821350 2158.874268,621.718872  z"
   id="path6" />
<path
   fill="#FE5533"
   opacity="1.000000"
   stroke="none"
   d=" M1414.918457,729.010620   C1369.383179,705.260803 1324.551392,681.754456 1279.509644,658.657288   C1273.060303,655.350098 1270.440674,651.665649 1270.553833,644.244385   C1270.996094,615.259338 1270.721313,586.263550 1270.750122,557.271729   C1270.752930,554.344055 1271.005127,551.416626 1271.216797,546.875183   C1294.649780,556.883301 1316.204224,568.395447 1338.200073,578.925354   C1360.424316,589.564636 1382.504517,600.504700 1404.650757,611.307007   C1426.797729,622.109619 1448.944702,632.912354 1471.098389,643.701233   C1493.252686,654.490417 1515.416992,665.259338 1537.573853,676.043152   C1559.729492,686.826416 1581.882568,697.615295 1604.034912,708.405212   C1626.186768,719.194885 1648.340576,729.980164 1670.485718,740.783569   C1692.631104,751.587158 1714.757690,762.429077 1736.908936,773.220703   C1759.002319,783.984131 1781.115967,794.705994 1804.543701,806.088806   C1806.086060,793.634277 1805.155884,782.414917 1805.322388,771.265259   C1805.491333,759.937622 1805.359741,748.605530 1805.359741,737.275391   C1805.359741,725.945251 1805.359741,714.615173 1805.359741,703.285034   C1805.359741,691.621643 1805.359741,679.958313 1805.359741,668.294922   C1805.359741,656.964783 1805.359741,645.634705 1805.359741,634.304565   C1805.359741,622.974426 1805.359741,611.644287 1805.359741,600.314148   C1805.359741,588.984009 1805.359741,577.653931 1805.359741,566.323792   C1805.359741,555.031555 1805.359741,543.739319 1805.359741,532.670959   C1812.858276,530.345764 1885.649902,529.753662 1899.145264,531.846252   C1899.145264,680.807251 1899.145264,829.914124 1899.145264,980.418823   C1896.215698,979.071960 1893.357422,977.900452 1890.627563,976.481812   C1827.390503,943.619995 1764.165894,910.734497 1700.942139,877.846985   C1605.811646,828.362305 1510.683838,778.872742 1414.918457,729.010620  z"
   id="path8" />
<path
   fill="#020202"
   opacity="1.000000"
   stroke="none"
   d=" M2861.853760,590.168823   C2885.999756,620.203979 2897.891357,654.388794 2901.753906,691.551575   C2903.162109,705.102478 2903.637939,718.802185 2903.667480,732.435913   C2903.839355,811.419006 2903.751221,890.402710 2903.751221,969.386169   C2903.751221,973.015503 2903.751221,976.644897 2903.751221,980.977295   C2873.795166,980.977295 2844.385010,980.977295 2814.011475,980.977295   C2814.011475,977.138000 2814.011475,973.560913 2814.011475,969.983765   C2814.011230,889.667236 2814.005371,809.350647 2814.016113,729.034119   C2814.018066,713.669373 2813.078613,698.445190 2808.401367,683.646240   C2798.007080,650.760315 2776.362305,629.860901 2742.666992,621.816345   C2717.599121,615.831543 2692.470947,615.975098 2667.518555,622.240417   C2630.770508,631.467590 2605.254395,660.625122 2600.035645,699.147095   C2598.967285,707.032654 2598.423828,715.050720 2598.412842,723.008789   C2598.298096,805.324707 2598.342529,887.640930 2598.342529,969.957031   C2598.342529,973.544067 2598.342529,977.131042 2598.342529,981.196411   C2568.277344,981.196411 2539.070312,981.196411 2508.906982,981.196411   C2508.718018,978.446899 2508.351807,975.596619 2508.350830,972.746277   C2508.320557,887.430786 2508.012939,802.113464 2508.488037,716.800659   C2508.665283,684.933899 2514.467529,653.892151 2528.348389,624.805664   C2540.795166,598.724426 2558.509521,577.117493 2582.435059,560.630310   C2598.666260,549.445129 2616.820068,543.526306 2635.811768,539.265564   C2687.512207,527.666321 2738.900146,529.088989 2790.010498,542.543701   C2819.042969,550.186523 2842.209229,566.946960 2861.853760,590.168823  z"
   id="path10" />
<path
   fill="#020202"
   opacity="1.000000"
   stroke="none"
   d=" M430.578796,846.119385   C434.102112,841.848206 435.970215,844.190735 438.021301,846.743774   C450.532166,862.315674 466.255005,873.950378 483.546448,883.627441   C511.700256,899.383728 541.631775,904.320251 573.252502,897.809387   C587.554321,894.864624 600.351074,888.727234 610.494629,877.817261   C618.296631,869.425781 622.526123,859.432922 623.029785,848.096252   C623.486389,837.818848 619.552124,828.809814 611.296936,822.837036   C603.546570,817.229675 595.248901,811.752808 586.360474,808.470947   C566.099121,800.989990 545.374329,794.742371 524.751770,788.267639   C503.140015,781.482422 481.633911,774.457458 461.514191,763.860596   C446.691711,756.053711 433.101257,746.585999 421.598206,734.223450   C386.421112,696.417847 383.403473,628.528748 421.284729,584.784790   C442.840576,559.892822 470.299255,544.982788 501.993225,538.130798   C564.831360,524.545654 623.724609,535.193481 678.109131,569.441711   C687.292908,575.225098 695.296265,582.883057 703.101807,589.084473   C682.945007,609.213318 663.708435,628.423096 644.163269,647.941040   C629.226318,635.319702 611.915955,625.009399 592.097046,619.205811   C570.280212,612.817139 548.207520,611.635132 525.934021,616.051575   C514.997498,618.220154 505.015900,622.775574 496.719543,630.435242   C478.341095,647.403320 479.353821,671.868042 500.137238,685.651794   C510.531219,692.545227 522.392334,697.702148 534.217102,701.860962   C557.108215,709.911926 580.702576,715.985046 603.509521,724.246826   C620.641785,730.452942 637.643860,737.625305 653.591553,746.391235   C730.755981,788.805969 724.641357,881.880737 681.198853,928.899902   C658.460388,953.510498 630.429138,968.819275 598.121826,975.672546   C522.410767,991.732849 454.858521,974.900635 396.765533,923.053955   C389.390839,916.472290 383.037079,908.746704 375.841248,901.162048   C394.370331,882.512390 412.202515,864.564270 430.578796,846.119385  z"
   id="path12" />
<path
   fill="#030303"
   opacity="1.000000"
   stroke="none"
   d=" M3931.536133,1087.999756   C3931.536133,905.476135 3931.536133,723.952576 3931.536133,541.983032   C3945.193359,541.983032 3958.015381,541.983032 3971.612549,541.983032   C3971.612549,569.152405 3971.612549,595.985657 3971.612549,622.818909   C3972.162842,623.079529 3972.713135,623.340149 3973.263428,623.600769   C3975.315674,620.917542 3977.414307,618.268433 3979.413086,615.546082   C4008.209961,576.330078 4045.043213,548.545593 4093.066162,537.745056   C4157.315430,523.295166 4214.648926,538.382019 4264.145508,581.394592   C4304.410645,616.385132 4327.392578,661.417908 4336.223633,713.735229   C4345.059570,766.076599 4339.191406,816.747009 4315.736328,864.550903   C4289.428223,918.170227 4248.528320,956.368774 4190.692871,973.516418   C4114.454102,996.120239 4032.504639,970.989563 3982.967041,903.788452   C3979.808594,899.503662 3976.804688,895.104858 3973.749512,890.788086   C3973.346191,890.901123 3973.020752,890.942139 3972.747559,891.083618   C3972.495117,891.214478 3972.103760,891.452759 3972.103516,891.643860   C3972.075928,980.931152 3972.076416,1070.218506 3972.076416,1160.231812   C3958.640869,1160.231812 3945.831787,1160.231812 3931.536133,1160.231812   C3931.536133,1136.614868 3931.536133,1112.807373 3931.536133,1087.999756  M3971.865234,764.810791   C3973.766357,809.381348 3987.281250,849.662109 4016.395508,884.017334   C4057.402832,932.406494 4123.033691,953.460754 4182.161133,933.961975   C4229.170898,918.459473 4261.401367,886.241760 4281.713379,841.833679   C4297.427734,807.477417 4302.330078,771.224976 4298.214844,733.693604   C4293.011230,686.242676 4274.623535,645.039734 4238.812012,612.951172   C4201.658691,579.660034 4158.143066,566.260925 4108.571777,575.813782   C4062.177979,584.754333 4027.079102,610.531494 4001.771240,649.823730   C3979.652100,684.165222 3970.925537,722.298462 3971.865234,764.810791  z"
   id="path14" />
<path
   fill="#030303"
   opacity="1.000000"
   stroke="none"
   d=" M5124.865234,966.826111   C5102.450684,976.398743 5079.574219,980.750427 5056.168457,981.360535   C5015.658203,982.416443 4978.356445,972.697144 4946.716797,945.900330   C4884.986816,893.618591 4896.946289,804.922852 4952.433594,763.535461   C4977.343750,744.955383 5005.568848,734.929932 5035.850098,730.064514   C5091.669434,721.095947 5147.527344,712.370422 5203.364746,703.515198   C5203.966797,703.419739 5204.508789,702.943787 5205.687988,702.326660   C5206.962402,689.642090 5204.727051,676.941528 5201.969727,664.346741   C5190.528320,612.080872 5152.309082,578.456970 5098.918945,573.725159   C5047.545898,569.172119 5005.315918,588.366882 4969.557129,624.032837   C4966.036133,627.544434 4962.819824,631.360779 4959.425781,635.075623   C4950.795898,626.135254 4942.325195,617.359863 4932.849609,607.543152   C4939.123047,600.897461 4945.596191,592.908936 4953.193848,586.191589   C4982.657715,560.139893 5015.854492,540.766174 5055.327637,535.102478   C5117.637207,526.162109 5171.665039,541.574890 5212.163086,592.479553   C5229.960938,614.850830 5239.785156,640.963928 5243.818359,669.094971   C5245.559082,681.236389 5246.326172,693.614807 5246.354980,705.888428   C5246.562500,793.847351 5246.466309,881.807068 5246.465820,969.766479   C5246.465820,973.381531 5246.465820,976.996643 5246.465820,981.142944   C5232.935059,981.142944 5220.122070,981.142944 5206.273926,981.142944   C5206.273926,953.831787 5206.273926,926.774231 5206.273926,899.716675   C5184.776855,929.266785 5158.820312,952.243042 5124.865234,966.826111  M5206.152832,780.947083   C5206.152832,768.701721 5206.152832,756.456299 5206.152832,744.183472   C5204.132324,744.183472 5203.116211,744.042664 5202.150879,744.203552   C5146.084961,753.548584 5089.969727,762.613831 5033.987793,772.438660   C5012.197754,776.262756 4991.782227,784.123413 4974.109375,798.188171   C4943.830566,822.285034 4931.687012,875.271240 4968.657227,910.985291   C4981.139160,923.042847 4995.717285,931.575378 5012.408203,935.903137   C5056.673828,947.380798 5098.615234,940.568970 5136.614258,915.756409   C5184.129395,884.729736 5205.583984,839.042114 5206.152832,780.947083  z"
   id="path16" />
<path
   fill="#030303"
   opacity="1.000000"
   stroke="none"
   d=" M3613.291992,533.488647   C3655.846680,529.734375 3694.423828,538.229004 3728.409180,563.323975   C3761.020752,587.404724 3779.890381,620.448669 3787.736084,659.714539   C3790.587891,673.986572 3792.090820,688.763611 3792.153076,703.318970   C3792.541748,794.317017 3792.349609,885.317505 3792.335693,976.317200   C3792.335449,977.639587 3792.154541,978.961975 3792.006836,980.982544   C3779.149414,980.982544 3766.343018,980.982544 3752.060303,980.982544   C3751.927490,954.098145 3752.060791,926.960754 3751.976562,898.007263   C3749.798828,900.498291 3748.536865,901.698364 3747.557861,903.096802   C3714.073242,950.926575 3668.169922,976.515747 3609.967285,980.761719   C3578.014648,983.092712 3547.420410,978.566589 3518.977539,963.659729   C3485.526611,946.128357 3461.176758,920.103088 3453.963867,882.194275   C3444.591309,832.935608 3460.458252,792.165039 3500.752441,761.765747   C3524.416748,743.912231 3551.869629,734.832764 3580.789551,730.163879   C3636.630859,721.148804 3692.534424,712.520264 3748.407471,703.702148   C3749.341064,703.554810 3750.215820,703.035889 3751.709961,702.463928   C3752.502686,686.780945 3749.998047,671.451965 3745.745850,656.425598   C3732.243652,608.713867 3694.569824,577.904602 3645.427002,573.724609   C3591.623779,569.148193 3548.015869,589.500671 3511.661865,627.879639   C3509.405273,630.261780 3507.289551,632.777222 3505.135986,635.199768   C3496.192871,626.279724 3487.491211,617.600281 3478.017822,608.151062   C3513.798096,566.948914 3557.087158,539.606689 3613.291992,533.488647  M3646.264160,761.230530   C3624.613037,764.831848 3602.900635,768.105347 3581.327637,772.126282   C3559.543701,776.186646 3538.930664,783.385376 3521.096680,797.203552   C3493.660156,818.461914 3486.695801,852.650208 3494.395996,878.592102   C3501.118652,901.241211 3516.789795,916.863647 3537.315918,927.595215   C3560.096924,939.505493 3584.514648,942.970947 3609.962646,940.269043   C3671.123779,933.775146 3714.927490,903.145813 3739.878662,846.593262   C3754.341309,813.812805 3752.472412,779.078674 3751.674072,743.668152   C3716.698730,749.427246 3682.318115,755.088440 3646.264160,761.230530  z"
   id="path18" />
<path
   fill="#040404"
   opacity="1.000000"
   stroke="none"
   d=" M3019.900146,667.882751   C3037.498779,626.689026 3063.661133,593.272705 3100.164551,568.402405   C3174.251709,517.925476 3267.666260,520.899536 3338.593750,575.743713   C3358.299805,590.981201 3373.025879,606.194153 3383.547119,622.563660   C3373.508789,631.150696 3363.320557,639.865784 3352.974365,648.716064   C3347.277344,641.679382 3342.477783,634.851501 3336.785889,628.873230   C3309.604248,600.324646 3277.044678,581.062195 3237.829102,574.831726   C3194.988525,568.025330 3155.642334,578.182617 3120.745850,603.511902   C3074.500000,637.079102 3048.458984,682.873718 3043.823975,739.854187   C3038.156494,809.531067 3063.316895,866.337463 3118.750488,909.031921   C3146.183350,930.160339 3177.936768,941.481506 3212.523438,941.048096   C3268.603271,940.345276 3313.968262,917.025208 3347.803467,871.951843   C3349.373779,869.860229 3350.909424,867.742920 3352.836426,865.128906   C3363.239014,874.030212 3373.267334,882.611450 3383.608887,891.460510   C3382.395020,893.386841 3381.647217,894.834106 3380.663330,896.097229   C3344.958008,941.932983 3299.030029,971.288086 3241.188721,979.500122   C3185.732178,987.373657 3135.331787,973.064453 3091.170166,938.905273   C3038.936035,898.502075 3010.237305,844.684204 3003.463135,779.059570   C2999.519531,740.856750 3005.330811,704.116028 3019.900146,667.882751  z"
   id="path20" />
<path
   fill="#030303"
   opacity="1.000000"
   stroke="none"
   d=" M4685.401367,904.510986   C4683.919922,891.147217 4681.566895,878.599182 4681.522461,866.042908   C4681.203613,775.387390 4681.351562,684.730225 4681.351562,594.073547   C4681.351562,590.422607 4681.352051,586.771606 4681.352051,582.038635   C4652.791992,582.038635 4624.673828,582.038635 4596.114258,582.038635   C4596.114258,568.146362 4596.114258,555.335876 4596.114258,541.648743   C4609.359863,541.648743 4622.265625,541.648926 4635.170898,541.648743   C4640.503906,541.648682 4645.836914,541.696899 4651.169434,541.638733   C4671.717773,541.414673 4683.926270,529.940002 4685.460449,509.218414   C4685.828613,504.243225 4685.642578,499.224182 4685.644531,494.225250   C4685.656738,462.586182 4685.650391,430.947083 4685.650391,398.656738   C4697.530273,398.656738 4708.995117,398.656738 4721.293945,398.656738   C4721.293945,445.877563 4721.293945,493.072296 4721.293945,541.124634   C4754.263672,541.124634 4786.435059,541.124634 4819.300781,541.124634   C4819.300781,554.775513 4819.300781,567.595825 4819.300781,581.321350   C4787.419922,581.321350 4755.267578,581.321350 4722.566406,581.321350   C4722.207520,584.319946 4721.717285,586.503784 4721.716309,588.687805   C4721.681641,682.010803 4721.702637,775.333862 4721.680176,868.656860   C4721.676758,881.482971 4723.919922,893.820557 4729.333008,905.485413   C4738.816406,925.920776 4754.994141,937.331665 4777.168945,940.140015   C4800.927246,943.148804 4823.512207,938.513123 4846.615234,928.021545   C4846.739258,935.222168 4846.892578,941.667114 4846.948730,948.112976   C4847.003906,954.429932 4846.960938,960.747742 4846.960938,967.736389   C4837.047852,973.189758 4826.444824,976.627136 4815.314941,978.828979   C4794.380859,982.970581 4773.542480,982.518860 4752.999512,976.997009   C4715.895508,967.023376 4694.447754,942.021729 4685.401367,904.510986  z"
   id="path22" />
<path
   fill="#020202"
   opacity="1.000000"
   stroke="none"
   d=" M5430.634277,710.000488   C5430.634277,800.884338 5430.634277,890.768188 5430.634277,981.166748   C5416.969238,981.166748 5404.131348,981.166748 5390.650391,981.166748   C5390.650391,768.990112 5390.650391,557.002808 5390.650391,344.512878   C5403.702637,344.512878 5416.532227,344.512878 5430.634277,344.512878   C5430.634277,466.102051 5430.634277,587.551208 5430.634277,710.000488  z"
   id="path24" />
<path
   fill="#030303"
   opacity="1.000000"
   stroke="none"
   d=" M4456.318359,552.083923   C4456.318359,544.805664 4456.318359,538.512451 4456.318359,532.042114   C4458.094238,531.631958 4459.354492,531.094727 4460.617188,531.087646   C4472.229980,531.022522 4483.842285,531.049194 4496.046387,531.049194   C4496.046387,681.667969 4496.046387,831.700134 4496.046387,981.981873   C4482.916504,981.981873 4470.067383,981.981873 4456.318359,981.981873   C4456.318359,838.684204 4456.318359,695.876587 4456.318359,552.083923  z"
   id="path26" />
<path
   fill="#050505"
   opacity="1.000000"
   stroke="none"
   d=" M4448.298340,439.299408   C4454.833496,421.586151 4464.961914,414.514862 4481.474121,415.400848   C4498.214844,416.299042 4510.275391,429.205170 4510.351562,446.302734   C4510.427246,463.281677 4498.455078,476.559113 4481.924316,477.827972   C4464.521973,479.163727 4449.938965,467.748444 4448.051758,451.071533   C4447.645020,447.474060 4448.105957,443.778351 4448.298340,439.299408  z"
   id="path28" />





</svg>
